<?xml version="1.0" encoding="utf-8"?>
<svg xmlns="http://www.w3.org/2000/svg" width="440" height="269" viewBox="0 0 440 269" fill="none">
<g clip-path="url(#clip0_12319_52685)">
<path d="M0 12C0 5.37 5.37 0 12 0H428C434.63 0 440 5.37 440 12V257C440 263.63 434.63 269 428 269H12C5.37 269 0 263.63 0 257V12Z" fill="url(#paint0_linear_12319_52685)"/>
<path d="M420 12H20C15.5817 12 12 15.5817 12 20V249C12 253.418 15.5817 257 20 257H420C424.418 257 428 253.418 428 249V20C428 15.5817 424.418 12 420 12Z" fill="#0F212E"/>
<path fill-rule="evenodd" clip-rule="evenodd" d="M256.45 12H161.66C160.7 19.41 158.41 26.48 154.59 33.18C120.4 92.7 63.33 107.32 12 104.51V174.86C104.13 187.95 194.95 164.07 244.99 76.26C256.3 56.4 259.29 34.77 256.46 12H256.45ZM428 204.13V248.42C387.03 251.75 345.84 243.66 309.06 224.93C259.59 196.73 264.71 160.36 279.17 135.19C295.88 105.82 354.47 42.13 382.85 11.99H421C424.87 11.99 428 15.12 428 18.99V90.82C401.3 118.74 375.55 146.77 369.8 156.8C362.43 169.63 359.41 188.41 374.68 197.18C384.87 203.03 406.2 204.41 428 204.12V204.13Z" fill="url(#paint1_linear_12319_52685)"/>
<path d="M36.02 40.91C36.02 36.76 38.65 34.46 43.52 34.45C47.02 34.45 47.65 36.73 47.65 37.56C47.65 39.16 45.39 40.85 45.39 40.85C45.39 40.85 45.52 41.84 47.46 41.83C49.39 41.83 51.29 40.55 51.27 37.35C51.27 33.68 47.39 31.99 43.6 32.01C40.42 32.01 32 32.47 32 40.86C32 48.32 46.08 48.98 46.1 53.76C46.1 58.94 40.31 60.34 38.33 60.35C36.36 60.35 35.56 58.95 35.56 58.18C35.56 53.99 39.72 52.81 39.72 52.81C39.72 52.58 39.66 52.34 39.56 52.13C39.46 51.92 39.32 51.73 39.15 51.57C38.98 51.41 38.77 51.29 38.55 51.21C38.33 51.13 38.09 51.1 37.86 51.11C33.71 51.11 32.05 54.7 32.07 58.19C32.07 61.16 34.18 63.02 37.36 63.01C43.43 63.01 50.27 60.02 50.25 53.44C50.23 47.29 36.05 45.68 36.04 40.92L36.02 40.91ZM93.89 57.4C93.84 57.28 93.71 57.31 93.53 57.46C92.74 58.2 91.8 58.78 90.78 59.16C89.76 59.54 88.67 59.7 87.58 59.65C80.86 59.65 79.7 48.6 79.7 48.6C79.7 48.6 84.83 44.77 85.6 43.23C86.38 41.69 83.88 41.32 83.88 41.32C83.88 41.32 80.3 45.69 77.76 46.97C78.03 45.07 79.9 40.76 80.02 38.26C80.14 35.77 77.06 36.4 76.53 36.66C76.53 37.75 73.8 47.6 72.79 53.01C72.21 53.95 71.37 55.03 70.62 55.03C70.19 55.03 70.02 54.25 70.02 53.06C70.02 51.46 70.9 48.89 70.9 47.33C70.9 46.25 70.4 46.18 69.98 46.19H69.3C68.2 46.19 68.56 45.26 67.58 45.27C64.57 45.27 60.72 48.57 60.59 53.55C59.57 54.23 58.15 55.1 57.42 55.1C56.69 55.1 56.41 54.36 56.41 53.75C56.41 52.68 58.14 46.31 58.14 46.31C58.14 46.31 60.35 45.74 61.32 45.53C62.05 45.38 62.25 45.33 62.54 44.98C62.83 44.63 63.38 43.9 63.82 43.25C64.26 42.6 63.82 42.08 63.04 42.09C61.69 42.22 60.36 42.45 59.05 42.77C59.05 42.77 60.41 36.77 60.4 36.66C60.4 36.54 60.24 36.47 60.01 36.47C59.3 36.54 58.6 36.71 57.93 36.97C57.51 37.17 57.13 37.45 56.81 37.79C56.5 38.14 56.25 38.54 56.1 38.98C55.94 39.51 54.9 43.64 54.9 43.64C54.9 43.64 49.3 45.57 48.53 45.87C48.51 45.87 48.49 45.89 48.47 45.91C48.46 45.93 48.45 45.95 48.45 45.98C48.45 46.03 49.09 48.48 50.4 48.47C51.35 48.47 54.11 47.34 54.11 47.34C54.11 47.34 52.7 52.96 52.7 54.83C52.7 56.03 53.27 57.45 55.63 57.44C57.51 57.34 59.32 56.68 60.81 55.52C61.05 56.1 61.45 56.59 61.97 56.92C62.49 57.26 63.11 57.43 63.73 57.4C65.25 57.28 66.66 56.6 67.7 55.48C67.86 56 68.17 56.46 68.59 56.8C69.01 57.14 69.53 57.34 70.07 57.38C70.91 57.38 71.78 56.43 72.4 55.53C72.39 55.72 72.39 55.91 72.4 56.1C72.66 58.43 76.13 57.06 76.28 56.74C76.4 55.05 76.28 51.59 76.99 49.46C77.88 56.74 81.29 61.63 87.39 61.61C90.8 61.61 92.55 60.62 93.28 59.81C93.59 59.5 93.81 59.11 93.91 58.68C94.02 58.25 94.01 57.81 93.89 57.39V57.4ZM64.62 55C61.69 55 65.52 47.41 68.02 47.4C67.99 48.38 67.93 54.99 64.62 55ZM88.4 57.33C89.36 57.31 90.31 57.09 91.18 56.69C92.05 56.29 92.83 55.71 93.47 55C93.95 54.26 92.9 53.14 92.57 53.17C92.13 53.72 91.57 54.16 90.94 54.47C90.31 54.78 89.61 54.94 88.91 54.94C86.58 54.94 87.12 52.41 87.12 52.41C87.12 52.41 91.56 52.98 93.33 49.79C93.82 48.86 93.95 47.78 93.71 46.76C93.47 46.15 92.16 45.03 90.13 45.21C87.6 45.43 84.42 48.06 83.72 51.22C83.15 53.75 84.22 57.35 88.4 57.33ZM91.22 46.67C91.64 46.67 91.6 47.35 91.49 48.06C91.33 49.03 89.99 51.5 87.44 51.41C87.62 49.97 89.51 46.77 91.22 46.67Z" fill="white"/>
<path d="M420 257H20C15.59 257 12 253.41 12 249V20C12 15.59 15.59 12 20 12H420C424.41 12 428 15.59 428 20V249C428 253.41 424.41 257 420 257ZM20 14C16.69 14 14 16.69 14 20V249C14 252.31 16.69 255 20 255H420C423.31 255 426 252.31 426 249V20C426 16.69 423.31 14 420 14H20Z" fill="#F7931A"/>
<path d="M313.61 40.14V32.14H317.12C318.8 32.14 319.73 33.29 319.73 34.65C319.73 36.01 318.78 37.16 317.12 37.16H315.01V40.15H313.61V40.14ZM318.3 34.64C318.3 33.87 317.72 33.37 316.93 33.37H315.01V35.91H316.93C317.72 35.91 318.3 35.41 318.3 34.64Z" fill="white"/>
<path d="M326.51 40.14L325.92 38.6H322.25L321.66 40.14H320.07L323.21 32.14H324.96L328.1 40.14H326.51ZM324.08 33.55L322.64 37.36H325.52L324.08 33.55Z" fill="white"/>
<path d="M331.37 40.14V36.82L328.26 32.14H329.87L332.08 35.57L334.26 32.14H335.87L332.78 36.82V40.14H331.38H331.37Z" fill="white"/>
<path d="M343.9 40.14V36.82L340.79 32.14H342.4L344.61 35.57L346.79 32.14H348.4L345.31 36.82V40.14H343.91H343.9Z" fill="white"/>
<path d="M349.33 36.14C349.33 33.75 351.02 32 353.42 32C355.82 32 357.51 33.75 357.51 36.14C357.51 38.53 355.82 40.28 353.42 40.28C351.02 40.28 349.33 38.53 349.33 36.14ZM356.07 36.14C356.07 34.48 355.03 33.25 353.42 33.25C351.81 33.25 350.77 34.49 350.77 36.14C350.77 37.79 351.8 39.03 353.42 39.03C355.04 39.03 356.07 37.78 356.07 36.14Z" fill="white"/>
<path d="M359.77 36.98V32.13H361.19V36.93C361.19 38.2 361.9 39.03 363.24 39.03C364.58 39.03 365.28 38.2 365.28 36.93V32.13H366.7V36.96C366.7 38.95 365.56 40.27 363.25 40.27C360.94 40.27 359.78 38.94 359.78 36.97L359.77 36.98Z" fill="white"/>
<path d="M373.87 40.14L372.09 37.15H370.7V40.14H369.3V32.14H372.81C374.39 32.14 375.42 33.17 375.42 34.65C375.42 36.13 374.49 36.84 373.53 37L375.49 40.14H373.87ZM373.99 34.64C373.99 33.87 373.41 33.37 372.62 33.37H370.7V35.91H372.62C373.41 35.91 373.99 35.41 373.99 34.64Z" fill="white"/>
<path d="M387.84 40.14L386.28 34.24L384.73 40.14H383.23L380.94 32.14H382.51L384.07 38.3L385.73 32.14H386.85L388.51 38.3L390.06 32.14H391.63L389.35 40.14H387.85H387.84Z" fill="white"/>
<path d="M398.52 40.14L397.93 38.6H394.26L393.67 40.14H392.08L395.22 32.14H396.97L400.11 40.14H398.52ZM396.1 33.55L394.66 37.36H397.54L396.1 33.55Z" fill="white"/>
<path d="M403.38 40.14V36.82L400.27 32.14H401.88L404.09 35.57L406.27 32.14H407.88L404.79 36.82V40.14H403.39H403.38Z" fill="white"/>
<path d="M32.8501 235V227H36.7801C38.2401 227 39.0601 227.91 39.0601 229.04C39.0601 230.05 38.4101 230.72 37.6701 230.88C38.5201 231.01 39.2201 231.86 39.2201 232.85C39.2201 234.09 38.3901 235.01 36.8901 235.01H32.8501V235ZM37.6301 229.28C37.6301 228.68 37.2201 228.24 36.5001 228.24H34.2601V230.31H36.5001C37.2201 230.31 37.6301 229.88 37.6301 229.28ZM37.7801 232.65C37.7801 232.05 37.3601 231.55 36.5601 231.55H34.2601V233.77H36.5601C37.3301 233.77 37.7801 233.35 37.7801 232.65Z" fill="white"/>
<path d="M43.2501 235V228.24H40.8301V227H47.0801V228.24H44.6601V235H43.2601H43.2501Z" fill="white"/>
<path d="M48.5103 231.01C48.5103 228.55 50.3403 226.87 52.7103 226.87C54.3303 226.87 55.3303 227.71 55.9203 228.67L54.7203 229.28C54.3403 228.62 53.5703 228.12 52.7103 228.12C51.1303 228.12 49.9503 229.33 49.9503 231.01C49.9503 232.69 51.1203 233.9 52.7103 233.9C53.5703 233.9 54.3403 233.41 54.7203 232.74L55.9203 233.35C55.3103 234.31 54.3203 235.15 52.7103 235.15C50.3503 235.15 48.5103 233.47 48.5103 231.01Z" fill="white"/>
<mask id="mask0_12319_52685" style="mask-type:luminance" maskUnits="userSpaceOnUse" x="140" y="55" width="160" height="160">
<path d="M300 55H140V215H300V55Z" fill="white"/>
</mask>
<g mask="url(#mask0_12319_52685)">
<path d="M299.83 135.18C299.83 179.27 264.09 215 220 215C175.91 215 140.17 179.26 140.17 135.18C140.17 91.1 175.91 55.35 220 55.35C264.09 55.35 299.83 91.09 299.83 135.18Z" fill="#F7931A"/>
<path d="M255.88 125.3C257.43 114.85 249.48 109.23 238.58 105.47L242.1 91.3L233.5 89.15L230 102.95C227.72 102.38 225.4 101.85 223.1 101.33L226.6 87.51L217.98 85.36L214.46 99.51C212.58 99.08 210.73 98.66 208.96 98.21L197.06 95.24L194.79 104.44C194.79 104.44 201.19 105.91 201.04 105.99C203.33 106.28 205.09 108.21 205.09 110.56C205.09 110.71 205.09 110.86 205.07 111.01V110.99L201.05 127.14C201.4 127.22 201.71 127.32 202 127.43L201.95 127.41L201.05 127.19L195.4 149.69C194.99 150.98 193.81 151.89 192.41 151.89C192.07 151.89 191.73 151.84 191.42 151.73H191.44L185.17 150.19L180.89 160.01L192.11 162.78L198.26 164.38L194.68 178.7L203.3 180.85L206.83 166.67C209.18 167.29 211.45 167.89 213.71 168.44L210.18 182.56L218.8 184.71L222.35 170.41C237.08 173.18 248.13 172.06 252.78 158.76C256.53 148.06 252.6 141.88 244.85 137.86C250.5 136.66 254.73 132.93 255.88 125.29V125.3ZM236.15 152.93C233.5 163.65 215.47 157.93 209.62 156.4L214.34 137.5C220.19 138.88 238.94 141.77 236.14 152.93H236.15ZM238.83 125.15C236.33 134.9 221.33 129.93 216.53 128.73L220.83 111.53C225.68 112.73 241.35 115.01 238.83 125.15Z" fill="white"/>
</g>
<path d="M346.07 209H394.07C401.8 209 408.07 215.27 408.07 223C408.07 230.73 401.8 237 394.07 237H346.07C338.34 237 332.07 230.73 332.07 223C332.07 215.27 338.34 209 346.07 209Z" fill="white"/>
<path d="M344.61 223.01C344.61 220.55 346.44 218.87 348.81 218.87C350.43 218.87 351.42 219.71 352.02 220.67L350.82 221.28C350.44 220.62 349.67 220.12 348.81 220.12C347.23 220.12 346.05 221.33 346.05 223.01C346.05 224.69 347.23 225.9 348.81 225.9C349.67 225.9 350.44 225.41 350.82 224.74L352.02 225.35C351.41 226.31 350.43 227.15 348.81 227.15C346.45 227.15 344.61 225.47 344.61 223.01Z" fill="#0F212E"/>
<path d="M358.63 227L356.85 224.01H355.46V227H354.06V219H357.57C359.15 219 360.18 220.03 360.18 221.51C360.18 222.99 359.25 223.7 358.29 223.86L360.25 227H358.63ZM358.75 221.51C358.75 220.74 358.17 220.24 357.38 220.24H355.46V222.78H357.38C358.17 222.78 358.75 222.28 358.75 221.51Z" fill="#0F212E"/>
<path d="M364.56 227V223.68L361.45 219H363.06L365.27 222.43L367.45 219H369.06L365.97 223.68V227H364.57H364.56Z" fill="#0F212E"/>
<path d="M370.83 227V219H374.34C376.02 219 376.95 220.15 376.95 221.51C376.95 222.87 376 224.02 374.34 224.02H372.23V227.01H370.83V227ZM375.52 221.51C375.52 220.74 374.94 220.24 374.15 220.24H372.23V222.78H374.15C374.94 222.78 375.52 222.28 375.52 221.51Z" fill="#0F212E"/>
<path d="M380.94 227V220.24H378.52V219H384.77V220.24H382.35V227H380.95H380.94Z" fill="#0F212E"/>
<path d="M386.19 223.01C386.19 220.62 387.88 218.87 390.28 218.87C392.68 218.87 394.37 220.62 394.37 223.01C394.37 225.4 392.68 227.15 390.28 227.15C387.88 227.15 386.19 225.4 386.19 223.01ZM392.93 223.01C392.93 221.35 391.89 220.12 390.28 220.12C388.67 220.12 387.63 221.36 387.63 223.01C387.63 224.66 388.66 225.9 390.28 225.9C391.9 225.9 392.93 224.65 392.93 223.01Z" fill="#0F212E"/>
</g>
<rect x="0.75" y="0.75" width="438.5" height="267.5" rx="11.25" stroke="url(#paint2_linear_12319_52685)" stroke-opacity="0.1" stroke-width="1.5"/>
<defs>
<linearGradient id="paint0_linear_12319_52685" x1="220" y1="0" x2="220" y2="269" gradientUnits="userSpaceOnUse">
<stop stop-color="#1A2C38"/>
<stop offset="1" stop-color="#0F212E"/>
</linearGradient>
<linearGradient id="paint1_linear_12319_52685" x1="220" y1="9.88999" x2="220" y2="216.72" gradientUnits="userSpaceOnUse">
<stop stop-color="#F7931A"/>
<stop offset="1" stop-color="#0F212E"/>
</linearGradient>
<linearGradient id="paint2_linear_12319_52685" x1="220" y1="0" x2="220" y2="269" gradientUnits="userSpaceOnUse">
<stop stop-color="white"/>
<stop offset="1" stop-color="white" stop-opacity="0"/>
</linearGradient>
<clipPath id="clip0_12319_52685">
<rect width="440" height="269" rx="12" fill="white"/>
</clipPath>
</defs>
</svg>